<?xml version="1.0" standalone="no"?>
<!DOCTYPE svg PUBLIC "-//W3C//DTD SVG 20010904//EN"
 "http://www.w3.org/TR/2001/REC-SVG-20010904/DTD/svg10.dtd">
<svg version="1.0" xmlns="http://www.w3.org/2000/svg"
 width="120" height="90" viewBox="0 0 653.000000 615.000000"
 preserveAspectRatio="xMidYMid meet">

<g transform="translate(0.000000,615.000000) scale(0.100000,-0.100000)"
fill="#000000" stroke="none">
<path d="M3040 5774 c-279 -35 -396 -57 -574 -110 -701 -207 -1323 -731 -1656
-1394 -136 -270 -212 -512 -262 -831 -30 -193 -32 -580 -5 -764 94 -629 348
-1140 781 -1571 370 -368 817 -619 1307 -733 215 -50 361 -65 629 -65 268 0
414 15 629 65 938 218 1723 956 1995 1875 84 283 111 477 110 799 0 262 -16
412 -65 624 -218 937 -958 1726 -1874 1995 -274 80 -455 107 -755 111 -124 2
-241 1 -260 -1z m365 -44 c203 -13 327 -32 507 -76 961 -236 1726 -1001 1962
-1962 107 -435 107 -869 0 -1304 -236 -961 -1001 -1726 -1962 -1962 -435 -107
-869 -107 -1304 0 -961 236 -1726 1001 -1962 1962 -107 435 -107 869 0 1304
236 961 1001 1726 1963 1962 170 42 314 64 483 75 68 5 130 9 138 9 8 1 87 -3
175 -8z"/>
<path d="M2954 5654 c-1330 -161 -2324 -1279 -2324 -2614 0 -1454 1176 -2630
2630 -2630 1454 0 2630 1176 2630 2630 0 703 -273 1363 -770 1860 -424 424
-965 685 -1566 755 -157 18 -447 18 -600 -1z m1226 -1626 c18 -13 43 -36 54
-51 21 -28 21 -38 21 -470 0 -428 -1 -443 -21 -477 -11 -19 -38 -45 -60 -57
l-39 -23 -874 0 -874 0 -44 25 c-80 48 -78 32 -78 532 0 432 0 442 21 470 11
15 36 38 54 51 l33 22 887 0 887 0 33 -22z m-2324 -1234 c36 -26 61 -62 70
-96 6 -26 4 -28 -28 -28 -30 0 -36 4 -47 35 -15 43 -40 57 -101 58 -122 2
-148 -106 -37 -152 23 -10 64 -26 91 -36 27 -10 65 -32 83 -49 62 -56 55 -149
-15 -201 -33 -24 -152 -33 -206 -15 -44 14 -106 82 -106 115 0 22 4 25 34 25
29 0 34 -4 39 -30 9 -43 49 -64 119 -65 54 0 62 3 85 29 19 23 24 36 19 60 -8
42 -33 60 -126 91 -87 29 -123 52 -145 95 -31 60 -7 130 57 171 45 28 173 24
214 -7z m232 -86 l3 -108 124 0 125 0 0 110 0 110 35 0 35 0 0 -260 0 -260
-35 0 -35 0 0 120 0 120 -125 0 -124 0 -3 -117 -3 -118 -32 -3 -33 -3 0 261 0
261 33 -3 32 -3 3 -107z m772 82 l0 -30 -130 0 -130 0 0 -80 0 -79 113 -3 112
-3 3 -27 3 -28 -115 0 -116 0 0 -90 0 -90 130 0 130 0 0 -30 0 -30 -165 0
-165 0 0 260 0 260 165 0 165 0 0 -30z m150 -200 l0 -230 125 0 125 0 0 -30 0
-31 -157 3 -158 3 -3 245 c-1 134 0 250 3 257 2 7 18 13 35 13 l30 0 0 -230z
m390 0 l0 -230 125 0 125 0 0 -30 0 -31 -157 3 -158 3 -3 245 c-1 134 0 250 3
257 2 7 18 13 35 13 l30 0 0 -230z m390 0 l0 -230 125 0 125 0 0 -30 0 -31
-157 3 -158 3 -3 245 c-1 134 0 250 3 257 2 7 18 13 35 13 l30 0 0 -230z m634
-21 c53 -137 96 -254 96 -260 0 -5 -15 -9 -32 -9 -31 0 -34 3 -58 68 l-25 67
-106 3 -106 3 -25 -68 c-25 -65 -27 -68 -62 -71 l-36 -3 14 38 c12 32 148 388
177 461 6 16 17 22 37 22 29 0 31 -3 126 -251z m469 223 c48 -31 67 -68 67
-134 0 -106 -53 -146 -206 -155 l-94 -6 0 -98 0 -99 -35 0 -35 0 0 261 0 261
133 -4 c118 -3 136 -6 170 -26z m-3286 -630 c8 -5 11 -30 10 -67 -2 -57 -3
-60 -29 -63 l-28 -3 0 70 c0 61 2 71 18 71 9 0 22 -4 29 -8z m111 -17 c3 -18
2 -19 -8 -2 -19 29 -30 9 -30 -54 0 -33 -4 -59 -10 -59 -6 0 -10 29 -10 68 0
67 0 68 27 67 20 0 29 -6 31 -20z m39 -82 c-2 -21 -4 -4 -4 37 0 41 2 58 4 38
2 -21 2 -55 0 -75z m121 35 c2 -43 -1 -68 -8 -68 -6 0 -10 25 -10 59 0 97 -36
89 -43 -9 -3 -55 -3 -55 -5 12 -2 69 3 79 43 75 18 -2 20 -10 23 -69z m102 57
c7 -9 10 -18 6 -22 -3 -4 -12 1 -19 10 -21 29 -39 5 -35 -49 2 -37 7 -50 21
-52 12 -2 17 3 17 17 0 12 -4 21 -10 21 -5 0 -10 5 -10 10 0 6 9 10 21 10 17
0 20 -5 17 -32 -3 -29 -7 -33 -34 -36 -34 -3 -44 12 -44 71 0 58 40 88 70 52z
m140 5 c0 -5 -7 -10 -15 -10 -12 0 -15 -13 -15 -55 0 -30 5 -55 10 -55 6 0 10
10 10 22 0 16 3 19 11 11 18 -18 2 -45 -23 -41 -21 3 -23 9 -26 71 -3 66 -3
67 23 67 14 0 25 -4 25 -10z m71 -50 c14 0 19 7 19 30 0 17 5 30 10 30 6 0 10
-30 10 -70 0 -40 -4 -70 -10 -70 -5 0 -10 14 -10 30 0 23 -4 30 -20 30 -16 0
-20 -7 -20 -30 0 -16 -4 -30 -10 -30 -6 0 -10 28 -10 63 0 67 13 101 18 48 2
-23 8 -31 23 -31z m137 48 c7 -7 12 -25 12 -40 0 -25 -4 -28 -31 -28 -26 0
-30 -3 -27 -22 3 -26 38 -38 38 -14 0 9 5 16 11 16 6 0 9 -8 7 -17 -2 -12 -14
-19 -36 -21 l-32 -3 0 64 c0 35 3 67 7 70 10 11 38 8 51 -5z m150 4 c7 -5 12
-22 10 -38 -1 -16 2 -35 6 -42 15 -24 -4 -52 -35 -52 l-29 0 0 70 c0 60 2 70
18 70 9 0 23 -4 30 -8z m120 -34 c3 -35 1 -38 -22 -38 -21 0 -26 -5 -26 -25 0
-29 24 -34 39 -7 9 15 10 14 11 -6 0 -20 -4 -23 -32 -20 -32 3 -33 4 -36 57
-4 70 2 83 35 79 24 -3 28 -8 31 -40z m106 26 c9 -23 7 -34 -4 -34 -5 0 -10 6
-10 14 0 20 -13 27 -30 16 -11 -7 -7 -16 19 -45 39 -45 37 -69 -7 -73 -28 -3
-32 0 -32 20 1 20 2 21 11 6 5 -10 17 -18 24 -18 23 0 17 34 -10 60 -24 23
-32 50 -18 63 12 13 51 7 57 -9z m86 6 c0 -5 -7 -10 -15 -10 -12 0 -15 -13
-15 -55 0 -30 5 -55 10 -55 6 0 10 9 10 20 0 11 5 20 11 20 6 0 9 -10 7 -22
-3 -26 -36 -37 -49 -16 -10 15 -12 112 -2 121 10 11 43 8 43 -3z m138 1 c8 -5
12 -23 10 -47 -2 -32 -7 -40 -25 -42 -15 -2 -23 -10 -23 -23 0 -10 -4 -19 -10
-19 -11 0 -14 123 -3 133 9 9 35 8 51 -2z m102 5 c0 -2 3 -11 6 -20 3 -9 1
-16 -5 -16 -6 0 -11 7 -11 16 0 13 -3 14 -15 4 -8 -7 -16 -35 -18 -68 l-3 -57
-2 67 c-2 66 2 75 36 77 6 1 12 -1 12 -3z m95 -66 l0 -65 -30 0 c-29 0 -30 1
-33 54 -4 70 2 83 35 79 27 -3 28 -4 28 -68z m103 61 c9 -5 12 -26 10 -67 -3
-59 -3 -59 -35 -62 l-33 -3 0 70 c0 67 1 71 23 71 12 0 28 -4 35 -9z m82 -116
c11 0 16 15 18 63 4 84 22 79 22 -6 l0 -68 -35 -2 -35 -3 2 73 1 73 6 -65 c5
-49 10 -65 21 -65z m148 98 c4 -29 -14 -30 -21 -1 -5 18 -8 19 -22 8 -23 -19
-17 -103 8 -108 10 -2 17 3 17 12 0 9 5 16 11 16 6 0 9 -8 7 -17 -2 -13 -13
-18 -33 -18 -29 0 -30 1 -33 54 -4 70 2 83 35 79 20 -2 29 -9 31 -25z m82 17
c0 -5 -7 -10 -15 -10 -12 0 -15 -13 -15 -55 0 -30 5 -55 10 -55 6 0 10 9 10
20 0 11 5 20 11 20 6 0 9 -10 7 -22 -2 -17 -10 -23 -28 -23 -24 0 -25 3 -28
68 -3 66 -3 67 23 67 14 0 25 -4 25 -10z m97 -20 c1 -14 -1 -18 -3 -8 -7 22
-33 31 -40 13 -4 -9 7 -30 25 -50 37 -43 32 -67 -13 -63 -20 2 -32 9 -34 21
-2 9 1 17 7 17 6 0 11 -7 11 -15 0 -8 9 -15 20 -15 29 0 25 22 -10 55 -33 31
-36 45 -18 63 21 21 53 10 55 -18z m130 16 c-14 -11 -17 -25 -15 -68 3 -49 4
-51 15 -28 l12 25 0 -27 c1 -23 -3 -28 -24 -28 -24 0 -25 2 -25 70 0 70 0 70
28 70 25 -1 26 -2 9 -14z m111 -59 l3 -68 -33 3 c-32 3 -33 4 -36 57 -4 70 2
83 35 79 27 -3 28 -5 31 -71z m160 46 c4 -29 -14 -30 -21 -1 -5 18 -8 19 -22
8 -23 -19 -17 -103 8 -108 10 -2 17 3 17 12 0 9 5 16 11 16 6 0 9 -8 7 -17 -2
-13 -13 -18 -33 -18 -29 0 -30 1 -33 54 -4 70 2 83 35 79 20 -2 29 -9 31 -25z
m52 -39 c0 -57 2 -65 18 -62 14 3 18 16 20 66 4 84 22 79 22 -6 l0 -68 -32 -2
c-17 -1 -35 3 -40 10 -11 19 -10 128 2 128 6 0 10 -29 10 -66z m160 47 c7 -13
7 -22 0 -26 -5 -3 -10 0 -10 8 0 21 -30 30 -37 11 -3 -9 7 -28 27 -49 39 -40
35 -65 -10 -65 -16 0 -30 2 -30 4 0 2 -3 11 -6 20 -3 9 -1 16 5 16 6 0 11 -7
11 -15 0 -8 9 -15 20 -15 26 0 26 22 -1 46 -33 29 -42 53 -28 70 16 20 46 17
59 -5z m90 9 c0 -5 -7 -10 -15 -10 -12 0 -15 -13 -15 -55 0 -30 5 -55 10 -55
6 0 10 9 10 20 0 11 5 20 11 20 6 0 9 -10 7 -22 -2 -17 -10 -23 -28 -23 -24 0
-25 3 -28 68 -3 66 -3 67 23 67 14 0 25 -4 25 -10z m98 -2 c14 -14 16 -96 3
-116 -5 -8 -21 -12 -37 -10 -27 3 -29 6 -32 56 -2 31 2 60 9 68 14 17 41 18
57 2z m170 -60 c2 -41 -1 -68 -7 -68 -6 0 -11 28 -13 63 -2 34 -7 62 -13 62
-5 0 -11 -28 -13 -62 -4 -79 -22 -83 -22 -5 0 63 -4 74 -26 65 -10 -4 -14 -23
-14 -64 0 -33 -4 -59 -10 -59 -6 0 -10 28 -10 64 0 72 1 73 80 72 l45 -1 3
-67z m100 60 c7 -7 12 -25 12 -40 0 -25 -4 -28 -31 -28 -26 0 -30 -3 -27 -22
3 -26 38 -38 38 -14 0 9 5 16 11 16 6 0 9 -8 7 -17 -2 -12 -14 -19 -36 -21
l-32 -3 0 64 c0 35 3 67 7 70 10 11 38 8 51 -5z m110 -11 c2 -9 -1 -17 -7 -17
-6 0 -11 7 -11 16 0 13 -3 14 -15 4 -8 -7 -16 -35 -18 -68 l-3 -57 -2 67 c-2
67 4 79 38 75 8 -1 16 -10 18 -20z m90 -4 c2 -13 -1 -23 -7 -23 -6 0 -11 6
-11 14 0 20 -13 27 -30 16 -12 -7 -8 -16 19 -44 41 -42 39 -70 -7 -74 -28 -3
-32 0 -32 20 1 20 2 21 11 6 5 -10 17 -18 24 -18 23 0 17 34 -10 60 -40 37
-32 73 15 68 17 -2 26 -10 28 -25z m52 -103 c0 -5 -4 -10 -10 -10 -5 0 -10 5
-10 10 0 6 5 10 10 10 6 0 10 -4 10 -10z"/>
<path d="M2430 3500 l0 -390 830 0 830 0 0 390 0 390 -830 0 -830 0 0 -390z
m209 300 c10 -5 24 -23 31 -40 34 -82 -69 -150 -130 -85 -63 67 18 169 99 125z
m198 -12 c33 -31 32 -90 -3 -117 -36 -28 -79 -27 -109 4 -73 73 37 184 112
113z m188 -3 c73 -72 -28 -178 -109 -114 -19 15 -26 29 -26 57 0 75 83 110
135 57z m182 3 c33 -31 32 -90 -3 -117 -54 -42 -120 -16 -130 51 -5 30 -2 41
19 62 33 33 82 35 114 4z m188 -3 c73 -72 -28 -178 -109 -114 -20 16 -26 29
-26 59 0 72 84 106 135 55z m177 11 c60 -45 30 -145 -45 -146 -40 0 -62 14
-77 50 -14 34 0 83 29 100 23 13 73 12 93 -4z m193 -11 c16 -15 25 -36 25 -55
0 -19 -9 -40 -25 -55 -15 -16 -36 -25 -55 -25 -19 0 -40 9 -55 25 -16 15 -25
36 -25 55 0 19 9 40 25 55 15 16 36 25 55 25 19 0 40 -9 55 -25z m170 19 c23
-9 48 -62 41 -90 -21 -83 -141 -83 -162 0 -15 61 56 114 121 90z m-1188 -246
c32 -30 31 -81 -2 -113 -72 -73 -178 28 -114 109 27 34 82 36 116 4z m182 5
c11 -10 24 -32 27 -50 5 -27 1 -37 -24 -63 -34 -33 -66 -38 -100 -14 -45 32
-48 99 -5 132 24 17 77 15 102 -5z m188 -5 c46 -43 13 -138 -47 -138 -74 0
-114 77 -69 134 27 34 82 36 116 4z m192 -4 c34 -43 21 -102 -26 -123 -35 -16
-57 -14 -87 10 -33 26 -37 88 -6 119 31 31 93 27 119 -6z m181 6 c31 -31 27
-93 -6 -119 -30 -24 -52 -26 -87 -10 -47 21 -60 80 -26 123 26 33 88 37 119 6z
m189 -6 c35 -45 26 -95 -20 -119 -40 -21 -66 -19 -94 10 -53 52 -18 135 56
135 29 0 42 -6 58 -26z m171 16 c25 -13 41 -65 30 -94 -11 -30 -47 -56 -78
-56 -13 0 -37 14 -54 30 -25 26 -29 36 -24 63 11 56 74 85 126 57z m-1231
-236 c74 -62 -1 -175 -87 -130 -60 31 -58 111 3 144 31 17 51 14 84 -14z m170
11 c67 -34 51 -132 -25 -151 -32 -8 -75 21 -89 60 -11 33 8 75 45 93 32 16 35
16 69 -2z m847 -18 c30 -36 30 -68 0 -104 l-24 -28 -324 -3 c-362 -4 -391 0
-413 50 -9 23 -10 39 -3 61 19 54 39 57 406 54 l334 -2 24 -28z m192 -3 c12
-14 22 -36 22 -50 0 -29 -49 -84 -75 -84 -24 0 -72 27 -79 45 -36 94 66 162
132 89z m161 21 c31 -15 41 -33 41 -70 0 -37 -10 -55 -41 -70 -39 -21 -53 -19
-88 11 -23 19 -31 34 -31 59 0 25 8 40 31 59 35 30 49 32 88 11z"/>
<path d="M4253 2607 l-40 -112 80 -3 c44 -2 82 -1 85 2 5 5 -65 206 -77 218
-4 5 -25 -43 -48 -105z"/>
<path d="M4660 2660 l0 -100 80 0 c99 0 135 16 148 64 14 48 4 82 -30 111 -26
22 -39 25 -114 25 l-84 0 0 -100z"/>
<path d="M1570 2130 c0 -15 5 -20 18 -18 9 2 17 10 17 18 0 8 -8 16 -17 18
-13 2 -18 -3 -18 -18z"/>
<path d="M1570 2064 c0 -33 33 -30 38 4 3 17 -2 22 -17 22 -16 0 -21 -6 -21
-26z"/>
<path d="M2293 2153 c-22 -8 -15 -43 7 -43 13 0 20 7 20 19 0 22 -9 30 -27 24z"/>
<path d="M2440 2129 c0 -25 33 -22 38 4 2 12 -3 17 -17 17 -15 0 -21 -6 -21
-21z"/>
<path d="M2440 2064 c0 -33 33 -30 38 4 3 17 -2 22 -17 22 -16 0 -21 -6 -21
-26z"/>
<path d="M2557 2153 c-15 -15 -6 -43 13 -43 11 0 20 6 20 14 0 17 -24 38 -33
29z"/>
<path d="M2890 2114 c0 -23 4 -34 12 -32 33 11 36 68 3 68 -11 0 -15 -10 -15
-36z"/>
<path d="M3082 2148 c-14 -14 -16 -77 -3 -97 18 -28 41 -4 41 42 0 49 -18 75
-38 55z"/>
<path d="M3190 2095 c0 -42 3 -55 15 -55 12 0 15 13 15 55 0 42 -3 55 -15 55
-12 0 -15 -13 -15 -55z"/>
<path d="M3837 2153 c-4 -3 -7 -31 -7 -60 0 -46 3 -54 18 -51 22 4 30 89 9
106 -8 7 -17 9 -20 5z"/>
<path d="M4396 2153 c-3 -4 -6 -31 -6 -60 0 -46 3 -54 18 -51 23 4 31 102 8
111 -8 3 -17 3 -20 0z"/>
<path d="M4673 2153 c-22 -8 -15 -43 7 -43 13 0 20 7 20 19 0 22 -9 30 -27 24z"/>
</g>
</svg>
