<?xml version="1.0" standalone="no"?>
<!DOCTYPE svg PUBLIC "-//W3C//DTD SVG 20010904//EN"
 "http://www.w3.org/TR/2001/REC-SVG-20010904/DTD/svg10.dtd">
<svg version="1.0" xmlns="http://www.w3.org/2000/svg"
 width="406.000000pt" height="403.000000pt" viewBox="0 0 406.000000 403.000000"
 preserveAspectRatio="xMidYMid meet">

<g transform="translate(0.000000,403.000000) scale(0.100000,-0.100000)"
fill="#000000" stroke="none">
<path d="M1625 4009 c-538 -115 -984 -418 -1277 -869 -295 -451 -394 -1012
-273 -1535 191 -821 880 -1440 1710 -1535 115 -13 354 -13 470 0 571 64 1102
391 1430 880 76 114 185 340 230 475 161 492 125 1039 -101 1501 -275 562
-781 953 -1404 1084 -83 17 -132 20 -395 19 -257 0 -313 -3 -390 -20z m685
-19 c428 -69 803 -261 1102 -562 624 -631 745 -1605 294 -2372 -210 -357 -552
-655 -929 -810 -489 -202 -1038 -201 -1517 2 -517 219 -919 652 -1096 1180
-134 401 -135 837 -4 1235 240 722 861 1234 1620 1333 118 15 422 12 530 -6z"/>
<path d="M1830 3959 c-830 -84 -1519 -703 -1685 -1515 -157 -770 157 -1542
809 -1985 189 -127 458 -239 706 -291 93 -20 135 -22 360 -22 241 0 262 1 383
28 502 108 930 396 1211 815 504 752 406 1764 -232 2409 -409 413 -978 618
-1552 561z m898 -1129 c59 -36 62 -55 62 -405 0 -350 -3 -369 -62 -405 -32
-19 -49 -20 -708 -20 -659 0 -676 1 -708 20 -59 36 -62 55 -62 405 0 350 3
369 62 405 32 19 49 20 708 20 659 0 676 -1 708 -20z m-1723 -949 c47 -21 63
-38 75 -80 8 -29 7 -31 -18 -31 -21 0 -31 8 -42 33 -33 71 -170 57 -170 -18 0
-35 30 -58 108 -83 90 -29 127 -66 127 -128 0 -39 -5 -50 -31 -74 -64 -56
-175 -51 -236 10 -48 47 -51 80 -8 80 23 0 30 -5 30 -19 0 -55 122 -84 168
-41 22 21 28 55 14 76 -10 15 -44 32 -110 55 -31 11 -69 31 -84 46 -59 56 -42
139 35 174 53 23 91 24 142 0z m207 -78 l3 -88 108 -3 107 -3 0 91 c0 89 0 90
25 90 l25 0 0 -210 0 -210 -25 0 c-25 0 -25 0 -25 95 l0 95 -110 0 -110 0 0
-95 c0 -95 0 -95 -25 -95 l-25 0 0 210 0 210 25 0 c24 0 24 -2 27 -87z m636
65 c-3 -22 -8 -23 -105 -26 l-103 -3 0 -64 0 -65 90 0 c89 0 90 0 90 -25 0
-25 -1 -25 -90 -25 l-90 0 0 -75 0 -75 105 0 c98 0 105 -1 105 -20 0 -19 -7
-20 -135 -20 l-135 0 0 210 0 210 136 0 c135 0 135 0 132 -22z m132 -168 l0
-190 100 0 c93 0 100 -1 100 -20 0 -19 -7 -20 -130 -20 l-130 0 0 210 0 210
30 0 30 0 0 -190z m320 0 l0 -190 100 0 c93 0 100 -1 100 -20 0 -19 -7 -20
-130 -20 l-130 0 0 210 0 210 30 0 30 0 0 -190z m465 125 c12 -33 36 -96 53
-140 17 -44 42 -110 56 -147 l26 -68 -29 0 c-26 0 -32 6 -49 53 l-20 52 -88 0
-89 0 -19 -52 c-16 -47 -22 -53 -47 -53 -16 0 -29 2 -29 4 0 2 21 57 46 123
25 65 60 158 77 206 31 85 33 88 61 85 25 -3 31 -11 51 -63z m462 21 c33 -36
35 -42 31 -92 -8 -91 -57 -124 -185 -124 l-63 0 0 -80 c0 -79 0 -80 -25 -80
l-25 0 0 211 0 211 116 -4 116 -3 35 -39z m-2411 -494 c5 -4 11 -26 11 -48 2
-37 -1 -42 -23 -47 -23 -4 -24 -2 -24 49 0 53 9 65 36 46z m82 -13 c3 -12 2
-12 -7 1 -9 13 -11 13 -15 0 -3 -8 -7 -31 -9 -50 -3 -30 -4 -29 -5 11 -1 25 1
49 5 53 10 10 26 2 31 -15z m110 -31 l-2 -53 -3 48 c-5 61 -26 58 -34 -4 l-6
-44 -1 47 c-2 45 5 55 36 57 8 1 11 -15 10 -51z m79 32 c4 -13 3 -13 -6 0 -16
23 -33 -1 -29 -41 3 -35 24 -43 22 -9 0 11 3 20 8 20 5 0 8 -12 6 -27 -2 -20
-9 -28 -23 -28 -16 0 -21 8 -23 39 -2 21 -1 45 2 53 7 18 38 13 43 -7z m96 13
c-8 -3 -13 -22 -12 -51 1 -26 3 -39 6 -29 2 9 9 17 14 17 12 0 11 -11 -1 -30
-9 -13 -12 -12 -25 4 -15 20 -20 77 -8 89 3 4 13 7 22 6 10 0 12 -2 4 -6z m86
-45 c-1 -29 -4 -43 -6 -30 -5 27 -33 29 -33 2 0 -11 -4 -20 -10 -20 -5 0 -10
20 -10 45 0 25 5 45 10 45 6 0 10 -9 10 -21 0 -27 24 -19 28 9 6 40 12 23 11
-30z m79 19 c3 -22 -1 -27 -17 -27 -12 0 -21 -6 -21 -13 0 -21 12 -28 27 -16
8 7 13 8 13 1 0 -12 -29 -24 -41 -16 -11 6 -12 87 -2 98 15 14 38 0 41 -27z
m110 -19 c3 -46 2 -48 -22 -48 -24 0 -26 3 -26 51 0 47 2 50 23 47 19 -3 22
-10 25 -50z m80 19 c3 -22 -1 -27 -17 -27 -12 0 -21 -6 -21 -13 0 -22 12 -28
28 -14 13 10 14 9 10 -3 -2 -8 -13 -15 -24 -15 -15 0 -20 8 -22 39 -4 49 3 68
25 64 11 -2 19 -14 21 -31z m80 8 c2 -18 2 -19 -8 -2 -6 9 -15 17 -20 17 -17
0 -11 -23 11 -46 13 -14 19 -30 15 -39 -8 -22 -40 -15 -44 10 -4 20 -3 20 11
1 9 -12 16 -15 21 -8 3 6 -5 23 -19 40 -19 22 -21 32 -12 41 17 17 41 9 45
-14z m44 -22 c-2 -36 0 -44 7 -33 9 13 11 13 11 -1 0 -23 -11 -30 -27 -18 -13
12 -18 80 -6 92 14 15 18 5 15 -40z m126 10 c2 -24 -1 -33 -12 -33 -8 0 -20
-8 -25 -17 -8 -14 -10 -6 -11 35 0 50 2 53 23 50 17 -2 23 -11 25 -35z m67 26
c4 -6 4 -13 0 -17 -3 -3 -10 0 -15 8 -7 11 -10 1 -10 -32 0 -27 -4 -48 -10
-48 -15 0 -12 87 3 93 19 8 25 8 32 -4z m73 -35 c2 -27 -2 -45 -13 -54 -23
-19 -45 5 -45 50 0 43 7 52 35 48 16 -2 21 -12 23 -44z m71 32 c7 -8 11 -30 9
-48 -2 -27 -8 -34 -28 -36 -23 -3 -25 0 -24 40 0 24 1 46 2 51 3 12 29 8 41
-7z m164 -1 c4 -8 2 -17 -3 -20 -6 -4 -10 1 -10 9 0 16 -19 23 -21 9 0 -5 -2
-18 -3 -31 -2 -12 3 -30 10 -40 8 -10 13 -12 14 -4 0 6 5 12 12 12 8 0 6 -6
-4 -17 -32 -32 -63 27 -42 81 8 20 40 21 47 1z m49 3 c-14 -14 -16 -78 -3 -78
5 0 12 6 15 13 3 6 5 3 3 -8 -1 -11 -9 -20 -17 -20 -11 0 -16 14 -18 53 -3 44
0 52 14 52 14 0 15 -3 6 -12z m86 -13 c2 -18 2 -19 -8 -2 -6 9 -15 17 -20 17
-17 0 -11 -23 11 -46 13 -14 19 -30 15 -39 -8 -22 -40 -15 -44 10 -4 20 -3 20
11 1 10 -14 16 -16 22 -7 4 7 -2 22 -15 36 -14 15 -20 30 -16 40 8 22 40 15
44 -10z m84 13 c-14 -14 -16 -78 -3 -78 5 0 12 6 15 13 3 6 5 3 3 -8 -1 -11
-9 -20 -17 -20 -11 0 -16 14 -18 53 -3 44 0 52 14 52 14 0 15 -3 6 -12z m91
-2 c7 -18 -2 -78 -13 -90 -20 -20 -40 3 -40 47 0 24 3 47 7 50 11 12 41 7 46
-7z m115 -11 c3 -19 2 -19 -11 -2 -21 26 -27 21 -27 -24 0 -36 2 -40 20 -34
24 8 27 -10 4 -19 -37 -14 -57 40 -33 85 13 25 43 21 47 -6z m155 10 c4 -8 2
-17 -3 -20 -6 -4 -10 1 -10 9 0 9 -4 16 -10 16 -17 0 -11 -22 12 -47 20 -21
20 -25 7 -39 -18 -18 -49 -9 -49 15 1 14 2 14 14 -2 10 -12 16 -15 21 -7 4 6
-3 22 -15 35 -13 14 -20 31 -17 39 8 20 43 21 50 1z m49 3 c-14 -14 -16 -78
-3 -78 5 0 12 6 15 13 3 6 5 3 3 -8 -1 -11 -9 -20 -17 -20 -11 0 -16 14 -18
53 -3 44 0 52 14 52 14 0 15 -3 6 -12z m83 -43 c0 -43 -3 -50 -20 -50 -16 0
-21 8 -23 39 -4 49 3 68 25 64 14 -3 18 -14 18 -53z m121 0 l1 -50 -4 48 c-5
61 -26 58 -34 -4 l-6 -44 -1 48 c-2 62 -24 59 -33 -4 l-6 -44 -1 47 c-2 50 4
57 53 54 29 -1 30 -3 31 -51z m82 22 c3 -22 -1 -27 -17 -27 -12 0 -21 -6 -21
-13 0 -22 12 -28 28 -14 13 10 14 9 10 -3 -2 -8 -13 -15 -24 -15 -15 0 -20 8
-22 39 -4 49 3 68 25 64 11 -2 19 -14 21 -31z m72 16 c0 -15 -2 -16 -10 -3 -8
13 -10 13 -14 0 -3 -8 -7 -31 -9 -50 -3 -30 -4 -28 -5 12 -2 43 4 54 31 57 4
1 7 -7 7 -16z m68 -8 c2 -18 2 -19 -8 -2 -6 9 -15 17 -20 17 -17 0 -11 -25 11
-43 11 -10 19 -26 17 -35 -5 -24 -42 -22 -46 3 -4 20 -3 20 11 1 10 -14 16
-16 22 -7 4 7 -2 22 -15 36 -14 15 -20 30 -16 40 8 22 40 15 44 -10z m-2291
-52 c-2 -16 -4 -5 -4 22 0 28 2 40 4 28 2 -13 2 -35 0 -50z m1128 -18 c6 0 11
19 13 43 4 54 18 55 18 1 -1 -28 -6 -43 -19 -50 -27 -16 -37 -2 -35 49 l1 47
6 -45 c3 -25 11 -45 16 -45z m570 53 c-2 -18 -1 -38 2 -45 9 -24 23 -2 23 38
0 21 5 39 10 39 6 0 10 -20 10 -44 0 -44 -15 -59 -47 -49 -15 5 -18 93 -4 93
5 0 7 -14 6 -32z"/>
<path d="M1384 2717 c-2 -7 -3 -142 -2 -300 l3 -288 635 -1 635 0 3 301 2 301
-635 0 c-495 0 -637 -3 -641 -13z m168 -74 c22 -20 23 -61 1 -85 -34 -38 -103
-11 -103 40 0 54 62 81 102 45z m134 9 c6 -4 17 -18 24 -31 26 -51 -57 -105
-101 -65 -23 21 -25 61 -2 86 16 18 59 24 79 10z m160 -17 c34 -52 -14 -110
-74 -89 -64 23 -46 114 23 114 26 0 39 -6 51 -25z m136 8 c25 -23 23 -68 -4
-87 -62 -44 -124 16 -88 85 13 24 66 26 92 2z m140 0 c38 -34 11 -103 -40
-103 -54 0 -81 62 -45 102 20 22 61 23 85 1z m148 1 c20 -23 16 -75 -5 -90
-41 -30 -105 -1 -105 48 0 49 79 80 110 42z m150 -16 c13 -25 13 -31 0 -55
-27 -49 -101 -40 -114 13 -5 17 -1 35 9 51 23 35 83 30 105 -9z m132 15 c22
-20 23 -61 1 -85 -49 -54 -137 19 -92 76 24 30 63 34 91 9z m-934 -169 c30
-21 30 -77 0 -98 -30 -21 -50 -20 -76 4 -27 26 -28 64 -2 90 24 24 48 25 78 4z
m147 -9 c14 -13 25 -31 25 -40 0 -9 -11 -27 -25 -40 -31 -31 -49 -31 -80 0
-14 13 -25 31 -25 40 0 9 11 27 25 40 13 14 31 25 40 25 9 0 27 -11 40 -25z
m145 5 c11 -11 20 -31 20 -45 0 -28 -35 -65 -62 -65 -23 0 -68 43 -68 65 0 23
45 65 70 65 11 0 29 -9 40 -20z m138 4 c46 -32 17 -114 -40 -114 -28 0 -58 37
-58 69 0 31 30 61 60 61 9 0 26 -7 38 -16z m142 -2 c42 -34 16 -112 -38 -112
-24 0 -62 41 -62 67 0 28 33 63 59 63 10 0 29 -8 41 -18z m147 -4 c13 -12 23
-32 23 -44 0 -23 -42 -64 -67 -64 -19 0 -63 45 -63 65 0 21 45 65 66 65 10 0
28 -10 41 -22z m143 2 c11 -11 20 -31 20 -45 0 -29 -32 -65 -58 -65 -57 0 -86
82 -40 114 30 21 54 20 78 -4z m-948 -177 c39 -35 11 -103 -43 -103 -36 0 -59
24 -59 60 0 54 61 80 102 43z m140 0 c22 -20 23 -61 1 -85 -41 -45 -124 3
-102 60 6 15 16 30 22 34 20 13 60 9 79 -9z m648 -15 c13 -25 13 -31 0 -55
l-16 -28 -273 -3 c-302 -3 -311 -1 -311 59 0 59 5 60 308 57 l276 -3 16 -27z
m127 24 c33 -21 32 -82 -1 -104 -36 -25 -96 6 -96 50 0 48 57 79 97 54z m147
-8 c9 -8 16 -28 16 -44 0 -36 -23 -60 -57 -60 -55 0 -83 62 -46 102 20 22 66
24 87 2z"/>
<path d="M2706 1799 c-3 -8 -17 -45 -31 -83 -14 -37 -25 -72 -25 -77 0 -5 29
-9 65 -9 36 0 65 2 65 4 0 8 -61 170 -65 175 -3 2 -7 -2 -9 -10z"/>
<path d="M3010 1760 l0 -80 66 0 c96 0 124 18 124 83 0 60 -25 77 -115 77
l-75 0 0 -80z"/>
<path d="M790 1330 c0 -11 5 -20 10 -20 6 0 10 9 10 20 0 11 -4 20 -10 20 -5
0 -10 -9 -10 -20z"/>
<path d="M790 1286 c0 -9 7 -16 16 -16 17 0 14 22 -4 28 -7 2 -12 -3 -12 -12z"/>
<path d="M1310 1330 c0 -13 5 -20 13 -17 6 2 12 10 12 17 0 7 -6 15 -12 18 -8
2 -13 -5 -13 -18z"/>
<path d="M1430 1330 c0 -19 3 -21 12 -12 9 9 9 15 0 24 -9 9 -12 7 -12 -12z"/>
<path d="M1430 1285 c0 -8 5 -15 10 -15 6 0 10 7 10 15 0 8 -4 15 -10 15 -5 0
-10 -7 -10 -15z"/>
<path d="M1500 1329 c0 -24 23 -21 28 4 2 10 -3 17 -12 17 -10 0 -16 -9 -16
-21z"/>
<path d="M1756 1343 c-12 -12 -6 -43 9 -43 8 0 15 9 15 19 0 21 -13 34 -24 24z"/>
<path d="M1886 1341 c-10 -16 -3 -70 10 -75 15 -6 22 10 20 48 -1 30 -19 45
-30 27z"/>
<path d="M1970 1310 c0 -22 5 -40 10 -40 6 0 10 18 10 40 0 22 -4 40 -10 40
-5 0 -10 -18 -10 -40z"/>
<path d="M2434 1336 c-8 -21 -1 -66 11 -69 6 -1 11 17 13 41 3 41 -12 59 -24
28z"/>
<path d="M2844 1336 c-8 -21 -1 -66 11 -69 6 -1 11 17 13 41 3 41 -12 59 -24
28z"/>
<path d="M3045 1340 c-7 -12 2 -30 16 -30 5 0 9 9 9 20 0 21 -15 27 -25 10z"/>
</g>
</svg>
